<svg width="32" height="53" viewBox="0 0 32 53" fill="none" xmlns="http://www.w3.org/2000/svg">
<path d="M15.0181 1.51618C15.427 1.13203 15.9454 0.884445 16.5013 0.807725C17.0572 0.731005 17.6232 0.828947 18.1209 1.08798C18.6266 1.35823 19.0395 1.77278 19.3054 2.28151L20.9537 5.65459C21.3738 6.49908 21.9845 7.23438 22.7378 7.80242C23.491 8.37046 24.3661 8.75568 25.294 8.92766L29.0404 9.58259C29.5971 9.69983 30.103 9.98871 30.4867 10.4085C30.8705 10.8283 31.1127 11.3579 31.1793 11.9227C31.2459 12.4874 31.1335 13.0588 30.858 13.5564C30.5824 14.054 30.1576 14.4527 29.6434 14.6962L26.2632 16.3475C25.4176 16.7671 24.6812 17.3776 24.1123 18.1305C23.5433 18.8835 23.1573 19.7584 22.9848 20.686L22.3226 24.4232C22.2091 24.9761 21.926 25.4798 21.5127 25.8644C21.0994 26.249 20.5765 26.4953 20.0166 26.5691C19.4568 26.6429 18.8879 26.5404 18.3891 26.276C17.8903 26.0116 17.4864 25.5984 17.2336 25.0938L15.5497 21.6548C15.1329 20.8342 14.5354 20.1188 13.8019 19.5625C13.0684 19.0062 12.2182 18.6234 11.3152 18.443L7.57253 17.7955C7.01955 17.6817 6.51576 17.3987 6.13111 16.9857C5.74646 16.5727 5.50003 16.0503 5.42604 15.4909C5.35204 14.9315 5.45415 14.363 5.7182 13.8642C5.98224 13.3654 6.39511 12.9611 6.89949 12.7074L10.2782 11.0642C11.1282 10.6433 11.8675 10.0288 12.4367 9.27029C13.0058 8.51178 13.3889 7.63039 13.5552 6.69702L14.2163 2.95209C14.328 2.4008 14.6095 1.89916 15.0181 1.51618Z" fill="#9547A5"/>
<path d="M5.72484 39.6463C5.93019 39.4534 6.19046 39.3291 6.46961 39.2906C6.74876 39.252 7.03298 39.3012 7.28289 39.4313C7.53677 39.567 7.74411 39.7752 7.87763 40.0306L8.70533 41.7243C8.91624 42.1484 9.22292 42.5176 9.60115 42.8028C9.97938 43.0881 10.4188 43.2815 10.8847 43.3678L12.7659 43.6967C13.0454 43.7556 13.2995 43.9006 13.4921 44.1114C13.6848 44.3222 13.8065 44.5882 13.8399 44.8717C13.8733 45.1553 13.8169 45.4422 13.6786 45.6921C13.5402 45.9419 13.3269 46.1421 13.0687 46.2644L11.3714 47.0936C10.9468 47.3043 10.577 47.6108 10.2913 47.9889C10.0056 48.367 9.8118 48.8063 9.7252 49.2721L9.39268 51.1486C9.33568 51.4262 9.19353 51.6792 8.986 51.8723C8.77848 52.0654 8.51589 52.1891 8.23478 52.2261C7.95367 52.2632 7.66801 52.2117 7.41755 52.079C7.16708 51.9462 6.96427 51.7387 6.83731 51.4854L5.99177 49.7586C5.78252 49.3465 5.48245 48.9873 5.11416 48.7079C4.74586 48.4286 4.31894 48.2364 3.86553 48.1458L1.9862 47.8206C1.70853 47.7635 1.45557 47.6214 1.26242 47.414C1.06928 47.2067 0.945535 46.9443 0.908381 46.6634C0.871226 46.3826 0.922499 46.0971 1.05508 45.8466C1.18767 45.5961 1.39498 45.3931 1.64825 45.2658L3.34481 44.4407C3.77162 44.2293 4.14286 43.9208 4.42865 43.5399C4.71444 43.159 4.90681 42.7164 4.99028 42.2478L5.32226 40.3673C5.37833 40.0905 5.5197 39.8386 5.72484 39.6463Z" fill="#9547A5"/>
</svg>