<svg width="57" height="25" viewBox="0 0 57 25" fill="none" xmlns="http://www.w3.org/2000/svg">
<path d="M44.8623 0.860609C45.308 0.631467 45.814 0.546511 46.3102 0.617505C46.8063 0.688499 47.2682 0.911932 47.6317 1.25686C47.9993 1.61335 48.2517 2.07092 48.3548 2.57315L48.9396 5.87491C49.0923 6.70336 49.4356 7.48501 49.9425 8.15814C50.4494 8.83127 51.1059 9.37744 51.8601 9.75351L54.9153 11.2381C55.3645 11.4758 55.7277 11.8484 55.9538 12.3033C56.1799 12.7582 56.2575 13.2725 56.1756 13.7738C56.0938 14.275 55.8566 14.7379 55.4976 15.0973C55.1385 15.4567 54.6756 15.6944 54.1742 15.7769L50.8656 16.3624C50.0363 16.5145 49.2538 16.8573 48.5799 17.3637C47.9061 17.8701 47.3593 18.5262 46.9829 19.2802L45.4943 22.3257C45.2607 22.7724 44.8936 23.1352 44.4441 23.3637C43.9946 23.5921 43.485 23.6749 42.9862 23.6004C42.4874 23.5259 42.0242 23.2979 41.661 22.9481C41.2979 22.5983 41.0528 22.144 40.96 21.6486L40.3609 18.2815C40.2051 17.4744 39.8682 16.7131 39.3754 16.0549C38.8827 15.3967 38.2469 14.8587 37.5161 14.4816L34.4622 13.0042C34.0155 12.7704 33.6526 12.4034 33.424 11.9541C33.1955 11.5049 33.1125 10.9956 33.1867 10.4972C33.2609 9.9987 33.4885 9.53571 33.838 9.17247C34.1875 8.80923 34.6415 8.56377 35.137 8.47017L38.4423 7.89121C39.2757 7.73904 40.0617 7.3935 40.7371 6.8824C41.4125 6.3713 41.9584 5.7089 42.3309 4.94847L43.8205 1.89603C44.0521 1.45021 44.4173 1.08883 44.8623 0.860609Z" fill="#9547A5"/>
<path d="M6.4391 13.3314C6.655 13.2204 6.90012 13.1792 7.14049 13.2136C7.38086 13.248 7.60459 13.3562 7.78071 13.5233C7.95877 13.696 8.08107 13.9177 8.13099 14.161L8.4143 15.7605C8.48828 16.1619 8.65461 16.5405 8.90015 16.8666C9.1457 17.1927 9.46373 17.4573 9.82913 17.6395L11.3092 18.3587C11.5268 18.4738 11.7027 18.6543 11.8123 18.8747C11.9218 19.0951 11.9594 19.3442 11.9197 19.5871C11.8801 19.8299 11.7652 20.0542 11.5913 20.2282C11.4173 20.4023 11.1931 20.5175 10.9502 20.5575L9.34734 20.8411C8.94559 20.9148 8.56651 21.0809 8.24006 21.3262C7.91361 21.5715 7.64874 21.8894 7.46637 22.2546L6.74523 23.73C6.63209 23.9464 6.45427 24.1222 6.2365 24.2328C6.01874 24.3435 5.77186 24.3836 5.53022 24.3475C5.28858 24.3114 5.06418 24.2009 4.88825 24.0315C4.71233 23.862 4.59361 23.642 4.54863 23.402L4.2584 21.7708C4.18295 21.3798 4.01972 21.011 3.78101 20.6921C3.5423 20.3733 3.23432 20.1127 2.88027 19.93L1.40085 19.2143C1.18442 19.101 1.00864 18.9232 0.89791 18.7056C0.78718 18.4879 0.746994 18.2412 0.782931 17.9997C0.818868 17.7583 0.929146 17.534 1.09845 17.358C1.26776 17.182 1.4877 17.0631 1.72773 17.0178L3.32897 16.7373C3.73271 16.6636 4.11349 16.4962 4.44067 16.2486C4.76786 16.001 5.03232 15.6801 5.21278 15.3117L5.93439 13.833C6.04658 13.617 6.2235 13.4419 6.4391 13.3314Z" fill="#9547A5"/>
</svg>